<?xml version="1.0" encoding="utf-8"?>
<!-- Generator: Adobe Illustrator 18.1.0, SVG Export Plug-In . SVG Version: 6.00 Build 0)  -->
<svg version="1.1" id="Layer_1" xmlns="http://www.w3.org/2000/svg" xmlns:xlink="http://www.w3.org/1999/xlink" x="0px" y="0px"
	 viewBox="0 0 500 500" enable-background="new 0 0 500 500" xml:space="preserve">
<g>
	<circle cx="60.6" cy="60.6" r="60.5"/>
	<rect x="8.6" y="164.6" width="103.9" height="335.4"/>
	<path d="M368,157.5c-49.5,1.6-80.2,37.2-91.4,52.9v-45.8H175.9V500h3.8h96.9h4V360.1v-34.3c0-0.7,0-1.6,0-2.4
		c0-81,57.4-74.6,57.4-74.6s57.4-6.5,57.4,74.6c0,0.9,0,1.6,0,2.4c0,25.9,0,34.5,0,34.3V500h0.9h10.9h92.9V298.9
		C501.7,139.4,368,157.5,368,157.5z"/>
</g>
</svg>
